<?xml version="1.0" standalone="no"?>
<!DOCTYPE svg PUBLIC "-//W3C//DTD SVG 20010904//EN"
 "http://www.w3.org/TR/2001/REC-SVG-20010904/DTD/svg10.dtd">
<svg version="1.0" xmlns="http://www.w3.org/2000/svg"
 width="1024.000000pt" height="1024.000000pt" viewBox="0 0 1024.000000 1024.000000"
 preserveAspectRatio="xMidYMid meet">
<metadata>
Created by potrace 1.11, written by Peter Selinger 2001-2013
</metadata>
<g transform="translate(0.000000,1024.000000) scale(0.100000,-0.100000)"
fill="#000000" stroke="none">
<path d="M2019 10143 c0 -5 -3 -28 -6 -53 -9 -58 -9 -238 0 -315 21 -206 125
-432 268 -590 l53 -58 -49 7 c-84 10 -166 35 -255 78 -47 22 -87 44 -90 47 -9
12 -70 53 -70 47 0 -4 16 -48 36 -99 88 -222 205 -411 331 -535 81 -80 83 -82
60 -91 -33 -13 -106 -32 -142 -38 -16 -3 -37 -7 -45 -8 -8 -2 -31 -4 -50 -4
l-35 -1 45 -29 c62 -39 153 -139 184 -203 39 -81 48 -184 25 -271 -10 -39 -72
-206 -89 -242 -19 -40 -62 -162 -91 -260 -58 -195 -73 -298 -74 -495 0 -214
27 -367 106 -604 l49 -148 -59 -117 c-85 -167 -163 -358 -237 -579 -63 -187
-75 -231 -114 -397 -29 -121 -54 -253 -66 -341 -3 -27 -8 -56 -9 -64 -2 -9 -6
-43 -10 -75 -4 -33 -8 -70 -10 -83 -22 -138 -22 -630 0 -763 2 -13 6 -51 10
-84 6 -66 54 -345 60 -355 2 -4 6 -17 8 -31 19 -100 100 -357 162 -514 36 -92
167 -364 212 -440 164 -277 361 -549 516 -712 l49 -52 -1 -456 c-2 -530 -3
-524 83 -610 62 -62 120 -85 208 -81 74 3 145 37 193 92 l30 35 50 -48 c64
-61 124 -83 209 -79 87 5 169 51 218 124 l15 23 18 -28 c24 -36 50 -59 105
-91 60 -36 173 -38 239 -5 l44 22 66 -36 c36 -20 109 -60 161 -88 110 -61 476
-241 566 -279 152 -63 314 -59 494 13 68 28 487 238 634 318 l109 60 48 -18
c102 -39 230 -5 298 78 l30 36 45 -45 c118 -121 313 -111 412 19 l31 41 41
-48 c132 -154 371 -120 462 65 l25 50 2 448 2 448 88 102 c48 56 90 104 93
107 39 36 245 320 332 460 84 134 207 368 255 485 7 17 26 63 42 103 74 179
177 540 196 686 3 27 8 52 10 56 2 3 6 34 10 69 4 34 8 70 10 80 2 10 6 51 10
92 4 41 8 94 11 119 5 60 5 422 -1 485 -12 137 -16 183 -20 215 -2 19 -7 58
-10 85 -4 28 -13 88 -21 135 -9 47 -18 99 -21 115 -8 49 -50 223 -77 325 -68
252 -177 542 -293 778 l-76 153 13 42 c8 23 17 47 21 52 13 20 68 212 89 313
26 131 34 211 34 342 0 248 -39 421 -176 780 -39 102 -76 208 -83 237 -25 107
3 229 72 321 43 56 71 82 138 128 49 33 49 34 20 34 -42 0 -170 26 -228 46
l-47 16 27 21 c131 100 263 297 383 572 5 11 18 42 30 68 12 27 20 50 18 52
-2 2 -21 -10 -43 -26 -96 -69 -306 -149 -391 -149 -23 0 -20 5 32 66 61 73
108 142 146 219 33 65 84 210 92 261 4 21 9 47 12 56 12 41 20 274 10 338 -2
14 -4 38 -5 53 -1 36 -10 33 -56 -23 -142 -173 -406 -410 -650 -586 -189 -136
-509 -309 -735 -397 -114 -45 -289 -105 -323 -112 -9 -2 -21 -6 -26 -9 -8 -5
-350 -93 -396 -102 -150 -29 -335 -61 -395 -68 -25 -3 -61 -8 -80 -10 -157
-20 -292 -29 -420 -29 -115 -1 -295 8 -380 18 -136 17 -314 42 -350 50 -14 3
-41 8 -60 11 -56 9 -312 64 -345 74 -16 5 -111 33 -210 61 -99 29 -184 56
-190 59 -5 4 -28 13 -50 20 -129 41 -467 197 -574 264 -22 14 -43 26 -47 26
-17 0 -417 280 -444 311 -3 3 -41 36 -85 74 -97 83 -285 273 -340 343 -38 48
-54 62 -56 45z"/>
</g>
</svg>
